<svg width="34" height="32" viewBox="0 0 34 32" fill="none" xmlns="http://www.w3.org/2000/svg">
    <path d="M20.4413 9.68498L13.2362 9.70605L13.4729 22.3152L20.678 22.2941L20.4413 9.68498Z" fill="#FF5F00"/>
    <path d="M13.7055 16.0383C13.6571 13.4735 14.8566 11.195 16.7383 9.71743C15.3148 8.65097 13.5311 8.00934 11.5986 8.01496C7.02035 8.02828 3.38405 11.6298 3.46772 16.0681C3.5514 20.5064 7.32311 24.0864 11.9013 24.0731C13.8339 24.0675 15.5931 23.4156 16.9763 22.3409C15.0395 20.8968 13.7539 18.6032 13.7055 16.0383Z" fill="#EB001B"/>
    <path d="M30.4464 15.9315C30.5301 20.3698 26.8938 23.9714 22.3156 23.9847C20.383 23.9903 18.5994 23.3487 17.1758 22.2822C19.0806 20.8046 20.257 18.5262 20.2087 15.9613C20.1603 13.3965 18.8751 11.1252 16.9378 9.65874C18.321 8.58411 20.0803 7.93217 22.0128 7.92654C26.591 7.91322 30.3632 11.5155 30.4464 15.9315Z" fill="#F79E1B"/>
</svg>
