<svg width="24" height="24" viewBox="0 0 24 24" fill="none" xmlns="http://www.w3.org/2000/svg">
    <path fill-rule="evenodd" clip-rule="evenodd" d="M15.1102 5.13044C15.8537 4.26612 16.2097 3.13434 16.0947 2C13.9304 2.01857 11.6133 4.72714 12.1619 6.57143C13.3006 6.51573 14.3666 5.99475 15.1102 5.13044ZM17.6118 12.8976C17.4971 11.2349 18.3164 9.64631 19.7376 8.77571C19.7173 8.74931 19.6981 8.71999 19.6787 8.69039C19.653 8.65113 19.6269 8.61135 19.5976 8.57714C19.497 8.44384 19.3877 8.31738 19.2704 8.19857C17.902 6.82088 15.8336 6.41319 14.0447 7.16857C13.0711 7.5247 12.6816 7.7189 12.2879 7.72779C11.892 7.73673 11.4918 7.55825 10.489 7.16857C9.59636 6.81047 8.60694 6.77411 7.69042 7.06571C5.59968 7.77818 4.15202 9.6901 4.03328 11.8957C3.86266 14.143 4.35065 16.3913 5.43757 18.3657C5.99825 19.5015 6.7634 20.5243 7.69471 21.3829C8.33654 21.9886 9.27062 22.169 10.0919 21.8457C10.2864 21.7846 10.4772 21.7121 10.6633 21.6286C11.834 21.0509 13.2068 21.0509 14.3776 21.6286C15.5828 22.3374 17.1313 21.9886 17.9161 20.8314C18.8102 19.8055 19.5276 18.6382 20.039 17.3771C20.0994 17.2237 20.1528 17.0676 20.2055 16.9133C20.2313 16.8378 20.257 16.7627 20.2833 16.6886C18.756 16.0213 17.7264 14.5603 17.6118 12.8976Z" fill="black"/>
</svg>
