<svg width="34" height="32" viewBox="0 0 34 32" fill="none" xmlns="http://www.w3.org/2000/svg">
    <path d="M3.50764 10.6667H28.841M8.17431 16H13.5076M11.3743 28H20.9743C23.9613 28 25.4547 28 26.5956 27.4187C27.5991 26.9074 28.415 26.0915 28.9263 25.088C29.5076 23.9471 29.5076 22.4536 29.5076 19.4667V12.5333C29.5076 9.54639 29.5076 8.05291 28.9263 6.91205C28.415 5.90852 27.5991 5.09262 26.5956 4.5813C25.4547 4 23.9613 4 20.9743 4H11.3743C8.38736 4 6.89389 4 5.75302 4.5813C4.74949 5.09262 3.9336 5.90852 3.42227 6.91205C2.84097 8.05291 2.84097 9.54639 2.84097 12.5333V19.4667C2.84097 22.4536 2.84097 23.9471 3.42227 25.088C3.9336 26.0915 4.74949 26.9074 5.75302 27.4187C6.89389 28 8.38736 28 11.3743 28Z" stroke="white" stroke-width="2" stroke-linecap="round" stroke-linejoin="round"/>
</svg>
