<svg width="24" height="24" viewBox="0 0 24 24" fill="none" xmlns="http://www.w3.org/2000/svg">
    <g clip-path="url(#clip0_6562_4)">
        <path d="M12 24C18.6274 24 24 18.6274 24 12C24 5.37258 18.6274 0 12 0C5.37258 0 0 5.37258 0 12C0 18.6274 5.37258 24 12 24Z" fill="#3577E5"/>
        <path d="M13.12 19.1199V12.6399H15.28L15.6 10.0799H13.12V8.47988C13.12 7.75988 13.36 7.27988 14.4 7.27988H15.76V4.95988C15.52 4.95988 14.72 4.87988 13.84 4.87988C11.92 4.87988 10.56 6.07988 10.56 8.23988V10.0799H8.40002V12.6399H10.56V19.1199H13.12Z" fill="white"/>
    </g>
    <defs>
        <clipPath id="clip0_6562_4">
            <rect width="24" height="24" fill="white"/>
        </clipPath>
    </defs>
</svg>
