<svg width="12" height="12" viewBox="0 0 12 12" fill="none" xmlns="http://www.w3.org/2000/svg">
<path d="M2.22534 6.9541L5.70164 10.2197L5.70165 10.2197C5.79621 10.3086 5.84349 10.353 5.89594 10.3733C5.9629 10.3992 6.0371 10.3992 6.10406 10.3733C6.15651 10.353 6.20379 10.3086 6.29836 10.2197L9.77466 6.9541C10.7527 6.0353 10.8715 4.5233 10.0489 3.46303L9.89423 3.26367C8.91014 1.99529 6.93481 2.20801 6.24333 3.65683C6.14566 3.86148 5.85434 3.86148 5.75667 3.65683C5.06519 2.20801 3.08986 1.99529 2.10577 3.26367L1.95109 3.46303C1.12847 4.5233 1.24725 6.03529 2.22534 6.9541Z" stroke="white" stroke-width="0.865385"/>
</svg>
