<svg width="24" height="24" viewBox="0 0 24 24" fill="none" xmlns="http://www.w3.org/2000/svg">
    <path d="M24.0001 12.27C24.0001 11.48 23.9286 10.73 23.806 10H12.2606V14.51H18.8711C18.5748 15.99 17.7063 17.24 16.419 18.09V21.0899H20.3628C22.6719 18.9999 24.0001 15.92 24.0001 12.27Z" fill="#4285F4"/>
    <path d="M12.2606 24C15.571 24 18.3398 22.92 20.3628 21.09L16.419 18.09C15.3156 18.81 13.9158 19.25 12.2606 19.25C9.06269 19.25 6.35515 17.14 5.38453 14.29H1.31812V17.38C3.33089 21.3 7.46882 24 12.2606 24Z" fill="#34A853"/>
    <path d="M5.38442 14.2901C5.12899 13.5701 4.99617 12.8001 4.99617 12.0001C4.99617 11.2001 5.13921 10.4301 5.38442 9.7101V6.62012H1.31801C0.480203 8.24011 0 10.0601 0 12.0001C0 13.9401 0.480203 15.7601 1.31801 17.3801L5.38442 14.2901Z" fill="#FBBC05"/>
    <path d="M12.2606 4.74997C14.0691 4.74997 15.6834 5.35997 16.9605 6.54997L20.4548 3.12998C18.3398 1.18999 15.571 0 12.2606 0C7.46882 0 3.33089 2.69999 1.31812 6.61997L5.38453 9.70995C6.35515 6.85997 9.06269 4.74997 12.2606 4.74997Z" fill="#EA4335"/>
</svg>
