<svg width="24" height="24" viewBox="0 0 24 24" fill="none" xmlns="http://www.w3.org/2000/svg">
<path d="M13.0366 2.02607C13.0277 1.97749 13.0209 1.92687 13.0175 1.87555C12.9682 1.16746 13.5012 0.553096 14.2099 0.503153C14.9187 0.453895 15.5331 0.98753 15.5823 1.69631C15.6316 2.4044 15.0987 3.01877 14.3899 3.06871C14.3454 3.07213 14.3009 3.07281 14.2572 3.07076C14.2284 3.07829 14.2113 3.08171 14.1867 3.1036C14.1142 3.21717 14.3721 3.19596 14.1963 3.69265C14.1963 3.69265 14.1949 3.74738 14.1757 3.80143C14.1621 3.99231 14.0889 4.55673 14.0779 4.85776C14.1149 4.90154 14.1258 4.92275 14.1217 5.02811C14.1053 5.1711 14.0724 5.52138 14.0198 5.74578C13.9753 5.93802 13.8966 5.97497 13.833 6.02218C13.744 6.42035 13.7208 6.75079 13.4923 7.23449C13.4718 7.60119 13.4458 7.70107 13.3691 7.88032C13.3602 8.42011 13.3979 8.50084 13.0332 9.35603C12.9388 9.75626 13.0284 10.0327 13.1276 10.4486C13.2289 10.8755 13.5107 11.0541 13.5532 11.4919C13.6517 12.5223 13.6271 13.2235 13.4061 14.0308L13.599 14.4878C13.8385 14.5973 14.4323 14.8976 14.1032 15.3731C14.5671 15.6167 15.2676 15.876 15.8457 16.3706C16.0784 16.5642 16.324 16.7756 16.5443 17.0233C16.9636 17.089 16.9192 17.1218 17.2305 17.3134C18.1452 17.8744 19.6113 18.9868 20.4617 19.7742C20.6081 19.8598 20.6676 19.9213 20.786 19.9836C20.8044 20.0192 20.8092 20.0274 20.8051 20.0369C20.7648 20.1396 20.7661 20.143 20.7292 20.2244C20.775 20.275 20.8605 20.3222 20.9119 20.3667C20.9598 20.3818 20.9598 20.3585 21.0418 20.3387C21.1486 20.4385 21.2806 20.5193 21.3285 20.5145C21.4735 20.4775 21.4482 20.5076 21.5707 20.3708C21.6145 20.3257 21.6884 20.3715 21.6884 20.3715C21.7342 20.3174 21.8327 20.21 21.9648 20.1327C22.0694 20.0705 22.2699 20.0643 22.2699 20.0643C22.3369 20.065 22.3246 20.1334 22.3185 20.156C22.2425 20.195 22.0818 20.2381 21.9921 20.3044C21.7958 20.5076 21.6418 20.7813 21.6418 20.7813C22.0373 20.7273 22.2802 20.8258 22.6099 20.7875C22.7898 20.7772 22.9226 20.7888 23.1107 20.652C23.1107 20.652 23.292 20.5227 23.4548 20.4543C23.6129 20.3852 23.7627 20.4221 23.9016 20.5234C23.9994 20.6342 24.0589 20.6349 23.9098 20.7909C23.8557 20.8518 23.7778 20.9195 23.6786 21.0173C23.5041 21.1897 23.2694 21.4196 23.0259 21.6098C22.7796 21.802 22.4998 21.9751 22.3253 22.0538C21.8847 22.3699 21.9887 22.2871 21.6425 22.6011C21.5987 22.6401 21.4831 22.7099 21.427 22.7475C21.2902 22.8372 21.2478 22.7626 21.1588 22.5984C21.1588 22.5984 21.1185 22.5368 21.0507 22.4062C20.9775 22.2632 20.9221 22.0997 20.9447 22.1024C20.8626 22.0921 20.4938 21.6591 20.4925 21.566C20.4145 21.5482 20.0813 21.226 20.0697 21.1644L19.7748 20.9277C19.4375 20.9982 19.3595 20.7881 18.4688 20.156C18.3668 20.1539 18.2102 20.0992 17.9844 19.9323C17.5821 19.61 16.6175 18.8814 16.4533 18.798C16.2774 18.7083 16.0674 18.6242 15.9388 18.5181C15.7459 18.4826 15.6405 18.4627 15.544 18.4354C15.4455 18.4087 15.3559 18.3738 15.1062 18.3403C14.6998 18.2896 14.2784 18.1213 13.8775 17.9209C13.6873 17.8306 13.5224 17.7847 13.3589 17.7149C12.9922 17.5603 12.6775 17.4208 12.4339 17.364C12.3409 17.3551 11.8989 17.2224 11.667 17.0869C11.5869 17.0452 11.5404 17.0062 11.487 16.9939C11.3653 16.9658 11.2873 17.0137 11.2325 17.0322C10.9349 17.1868 10.6565 17.3209 10.3992 17.4591C10.1598 17.587 9.9395 17.7204 9.70552 17.8545C9.4948 17.9763 9.25124 18.0912 9.00153 18.2103C9.00153 18.2103 8.28796 18.5681 7.898 18.707C7.56003 18.9827 6.86904 19.4602 6.44692 19.6969C6.23825 19.7961 5.83187 20.0534 5.6451 20.1108C5.53837 20.197 5.15798 20.4686 4.8597 20.6924C4.62982 20.8648 4.45536 21.0098 4.45536 21.0098C4.32196 21.1295 4.33085 21.1863 4.07635 21.0782C4.00588 21.1364 3.95115 21.1726 3.90599 21.2055C3.72264 21.3389 3.70691 21.3067 3.63986 21.3033C3.51192 21.4141 3.4955 21.3567 3.38399 21.4846C3.31078 21.5982 3.38536 21.5715 3.23074 21.6262C3.1979 21.6385 3.18285 21.6782 3.15754 21.7001C3.03302 21.8027 3.03234 22.0928 2.73405 22.1133C2.56096 22.2365 2.60543 22.3856 2.47339 22.3788C2.4816 22.5067 2.23941 22.6935 2.19631 22.6928C1.81592 22.8242 1.78924 22.5443 1.33223 22.753C1.27339 22.7797 1.1865 22.855 1.07225 22.8762C0.871112 22.9138 0.62824 22.8741 0.480464 22.7599C0.247169 22.5799 0.0330309 22.2337 0.0330309 22.2337C-0.0408571 22.0586 0.00224418 21.9478 0.233486 21.7822C0.329951 21.7206 0.347739 21.6748 0.509882 21.6639C0.589927 21.6337 0.568719 21.6803 0.711706 21.6283C0.795172 21.5982 0.795172 21.6194 0.962788 21.605C1.0011 21.579 1.05515 21.5701 1.12767 21.5462C1.26039 21.5024 1.3897 21.4538 1.3897 21.4538C1.3897 21.4538 1.42322 21.4196 1.55116 21.4319C1.65925 21.3875 1.77008 21.3225 1.82687 21.3019C1.8125 21.1309 1.83097 21.1391 1.91033 21.07C2.00885 20.9852 2.02664 20.9989 2.10053 21.0515C2.13131 21.0338 2.14636 21.0276 2.14294 21.0016C2.13063 20.9127 2.05469 20.8709 2.07727 20.6746C2.04306 20.5959 1.99312 20.4987 2.00406 20.4406C2.0198 20.3777 2.03553 20.3469 2.07384 20.327C2.11489 20.3051 2.12789 20.3346 2.14979 20.3592C2.18878 20.4043 2.22025 20.5391 2.22025 20.5391C2.23394 20.691 2.28114 20.8867 2.43097 20.7765C2.51922 20.6869 2.53633 20.4481 2.71694 20.4994L2.84556 20.6109C2.95434 20.5083 2.95982 20.5083 3.02549 20.4673C3.02549 20.4673 2.92356 20.364 3.01318 20.2832C3.07475 20.2285 3.14864 20.1895 3.28 20.0438C3.64123 19.6449 3.82663 19.4684 4.2166 19.1469C4.99516 18.5065 5.88181 18.057 6.44487 17.8333C6.62822 17.6 6.80678 17.4454 7.21453 17.4064C7.69891 16.5882 8.62661 15.8582 8.83939 15.7412C9.01247 15.4272 9.08773 15.4607 9.31487 15.3977C9.4948 15.2534 9.53516 15.2534 9.61589 15.1036C9.69389 14.793 9.43596 13.9638 10.0948 13.922C10.235 13.7243 10.2002 13.7715 10.3561 13.5847C10.2508 13.3241 10.207 13.1058 10.1783 12.9184C10.1728 12.8965 9.91623 12.7159 9.98944 12.4798C9.88066 12.3499 9.67678 12.0475 9.61316 11.9058C9.58374 11.9065 9.55979 11.8956 9.52764 11.8908C9.49411 11.8853 9.45306 11.8874 9.40654 11.8833C9.30392 12.148 9.19172 12.1679 9.00905 12.2267C8.68271 12.9218 8.56846 13.2153 7.64555 13.79C7.27953 14.1998 7.16254 14.6568 7.16391 14.65C7.10097 14.7854 7.12286 14.9749 7.15638 15.0762C7.10849 15.2267 7.1208 15.2418 7.1208 15.2418C7.14065 15.2985 7.19332 15.3738 7.25763 15.3895C7.36847 15.4189 7.4793 15.4142 7.47314 15.5373C7.45809 15.6919 7.25558 15.6666 7.1598 15.6495C6.79036 15.5907 6.90735 15.3505 6.67132 15.4306C6.4907 15.5489 6.42297 15.8979 6.12742 15.8527C6.08843 15.8267 6.10074 15.7508 6.12674 15.6953C6.16847 15.6091 6.24167 15.538 6.19789 15.5058C6.00633 15.566 5.62184 15.694 5.62184 15.694C5.44122 15.7432 5.24282 15.6529 5.4207 15.5346C5.50348 15.5024 5.62184 15.462 5.76756 15.369C5.76756 15.369 5.84282 15.2671 5.69846 15.3177C5.54111 15.3738 5.30918 15.4087 5.14293 15.3902C5.14293 15.3902 4.79812 15.3451 4.75365 15.3177C4.70918 15.2903 4.66813 15.1843 4.77623 15.1843C4.91306 15.1857 5.25513 15.1453 5.5199 15.0748C5.64783 15.0249 5.89139 14.8812 6.02822 14.8128C6.02822 14.8128 6.176 14.5973 6.25809 14.5542C6.39424 14.3975 6.50918 14.3052 6.62959 14.1451C6.74726 13.9022 6.86904 13.5177 7.259 12.9225C7.43893 12.6481 7.66333 12.3287 7.9452 12.0427C7.9452 12.0427 8.01841 11.585 8.38511 11.26C8.46584 11.0691 8.58899 10.8447 8.71008 10.6374C8.75729 10.5574 8.80176 10.4883 8.84691 10.4124C8.96048 10.2338 9.08021 9.90129 9.52285 9.8493C9.52285 9.8493 9.71236 9.70905 9.78488 9.60985C9.89845 9.5127 9.87245 9.36219 9.96481 9.25546C9.82387 9.11795 9.46264 8.85865 9.42775 8.49879C9.39012 8.11704 9.52627 7.80301 9.75751 7.5704C10.0134 7.31453 10.2836 7.18659 10.6113 7.20575C11.0204 7.26664 11.0978 7.4021 11.2284 7.53619C11.3536 7.66345 11.4002 7.58135 11.4528 7.73049C11.7963 7.82149 11.7771 7.7818 11.7744 8.03425C11.8271 8.10541 11.9153 8.17177 11.9146 8.31886C12.0303 8.07941 12.0528 8.03562 12.3614 7.77154C12.4346 7.5574 12.4838 7.34669 12.5482 7.13255C12.6084 6.93483 12.6829 6.73095 12.7411 6.5777C12.6795 6.14464 12.8061 6.07349 12.9744 5.69378C12.9443 5.64179 12.9511 5.62674 12.9634 5.54122C13.0291 5.29014 13.131 4.95833 13.1919 4.74213C13.1919 4.74213 13.2118 4.65593 13.3007 4.64977C13.378 4.37612 13.493 3.86643 13.5128 3.76243C13.5922 3.47578 13.5409 3.3841 13.48 3.22264C13.4601 3.16996 13.4697 3.09471 13.4355 3.03587C13.3397 2.86894 13.2364 2.65206 13.1666 2.49676C13.1215 2.39824 13.0496 2.02607 13.0496 2.02607C12.9833 1.83587 13.0366 2.02607 13.0366 2.02607Z" fill="black"/>
</svg>
