<svg width="24" height="23" viewBox="0 0 24 23" fill="none" xmlns="http://www.w3.org/2000/svg">
    <rect width="24" height="24" transform="translate(0 -1)" fill="transparent"/>
    <path d="M2.64738 14.9967C1.93228 14.9702 1.34722 14.7872 0.88975 14.4473C0.802444 14.3823 0.594403 14.1876 0.524607 14.1055C0.339097 13.8873 0.212975 13.675 0.128853 13.4394C-0.130004 12.7143 0.00322034 11.7627 0.509914 10.7183C0.94375 9.8242 1.61318 8.93743 2.78109 7.70926C2.95313 7.52854 3.46546 7 3.46877 7C3.46999 7 3.44207 7.04524 3.40693 7.10033C3.10326 7.57606 2.84342 8.13644 2.70187 8.62157C2.47448 9.4 2.50191 10.068 2.78219 10.586C2.97554 10.9429 3.30701 11.252 3.67974 11.4229C4.33227 11.7219 5.28762 11.7466 6.45431 11.4952C6.53464 11.4778 10.515 10.4896 15.2995 9.2991C20.0841 8.10849 23.9994 7.13514 24 7.13594C24.0013 7.13697 12.8841 11.5863 7.11297 13.8946C6.19901 14.26 5.9546 14.3523 5.52493 14.4934C4.42656 14.8542 3.44268 15.0263 2.64738 14.9967Z" fill="black"/>
</svg>
