<svg width="40" height="41" viewBox="0 0 40 41" fill="none" xmlns="http://www.w3.org/2000/svg">
    <rect x="0.5" y="1" width="39" height="39" rx="19.5" stroke="#E6E6E6"/>
    <path d="M20.0166 12.4248C17.2583 12.4248 15.0166 14.6665 15.0166 17.4248V19.8331C15.0166 20.3415 14.8 21.1165 14.5416 21.5498L13.5833 23.1415C12.9916 24.1248 13.4 25.2165 14.4833 25.5831C18.075 26.7831 21.95 26.7831 25.5416 25.5831C26.55 25.2498 26.9916 24.0581 26.4416 23.1415L25.4833 21.5498C25.2333 21.1165 25.0166 20.3415 25.0166 19.8331V17.4248C25.0166 14.6748 22.7666 12.4248 20.0166 12.4248Z" stroke="#575757" stroke-width="1.5" stroke-miterlimit="10" stroke-linecap="round"/>
    <path d="M21.5583 12.6662C21.3 12.5912 21.0333 12.5329 20.7583 12.4995C19.9583 12.3995 19.1916 12.4579 18.475 12.6662C18.7166 12.0495 19.3166 11.6162 20.0166 11.6162C20.7166 11.6162 21.3166 12.0495 21.5583 12.6662Z" stroke="#191A1D" stroke-width="1.5" stroke-miterlimit="10" stroke-linecap="round" stroke-linejoin="round"/>
    <path d="M22.5167 25.8838C22.5167 27.2588 21.3917 28.3838 20.0167 28.3838C19.3334 28.3838 18.7001 28.1005 18.2501 27.6505C17.8001 27.2005 17.5167 26.5671 17.5167 25.8838" stroke="#191A1D" stroke-width="1.5" stroke-miterlimit="10"/>
</svg>
