<svg width="40" height="40" viewBox="0 0 40 40" fill="none" xmlns="http://www.w3.org/2000/svg">
    <rect width="40" height="40" rx="20" fill="#E6E6E6"/>
    <path d="M28.3083 25.2748C28.3083 25.5748 28.2417 25.8832 28.1 26.1832C27.9583 26.4832 27.775 26.7665 27.5333 27.0332C27.125 27.4832 26.675 27.8082 26.1667 28.0165C25.6667 28.2248 25.125 28.3332 24.5417 28.3332C23.6917 28.3332 22.7833 28.1332 21.825 27.7248C20.8667 27.3165 19.9083 26.7665 18.9583 26.0748C18 25.3748 17.0917 24.5998 16.225 23.7415C15.3667 22.8748 14.5917 21.9665 13.9 21.0165C13.2167 20.0665 12.6667 19.1165 12.2667 18.1748C11.8667 17.2248 11.6667 16.3165 11.6667 15.4498C11.6667 14.8832 11.7667 14.3415 11.9667 13.8415C12.1667 13.3332 12.4833 12.8665 12.925 12.4498C13.4583 11.9248 14.0417 11.6665 14.6583 11.6665C14.8917 11.6665 15.125 11.7165 15.3333 11.8165C15.55 11.9165 15.7417 12.0665 15.8917 12.2832L17.825 15.0082C17.975 15.2165 18.0833 15.4082 18.1583 15.5915C18.2333 15.7665 18.275 15.9415 18.275 16.0998C18.275 16.2998 18.2167 16.4998 18.1 16.6915C17.9917 16.8832 17.8333 17.0832 17.6333 17.2832L17 17.9415C16.9083 18.0332 16.8667 18.1415 16.8667 18.2748C16.8667 18.3415 16.875 18.3998 16.8917 18.4665C16.9167 18.5332 16.9417 18.5832 16.9583 18.6332C17.1083 18.9082 17.3667 19.2665 17.7333 19.6998C18.1083 20.1332 18.5083 20.5748 18.9417 21.0165C19.3917 21.4582 19.825 21.8665 20.2667 22.2415C20.7 22.6082 21.0583 22.8582 21.3417 23.0082C21.3833 23.0248 21.4333 23.0498 21.4917 23.0748C21.5583 23.0998 21.625 23.1082 21.7 23.1082C21.8417 23.1082 21.95 23.0582 22.0417 22.9665L22.675 22.3415C22.8833 22.1332 23.0833 21.9748 23.275 21.8748C23.4667 21.7582 23.6583 21.6998 23.8667 21.6998C24.025 21.6998 24.1917 21.7332 24.375 21.8082C24.5583 21.8832 24.75 21.9915 24.9583 22.1332L27.7167 24.0915C27.9333 24.2415 28.0833 24.4165 28.175 24.6248C28.2583 24.8332 28.3083 25.0415 28.3083 25.2748Z" stroke="#A0A0A0" stroke-width="1.5" stroke-miterlimit="10"/>
</svg>
