<svg width="40" height="41" viewBox="0 0 40 41" fill="none" xmlns="http://www.w3.org/2000/svg">
    <rect x="0.5" y="1" width="39" height="39" rx="19.5" stroke="#E6E6E6"/>
    <path d="M27.425 19.2666C27.425 23.3416 24.4666 27.1582 20.425 28.2749C20.15 28.3499 19.8499 28.3499 19.5749 28.2749C15.5333 27.1582 12.575 23.3416 12.575 19.2666V15.6082C12.575 14.9249 13.0916 14.1499 13.7333 13.8916L18.3749 11.9916C19.4166 11.5666 20.5916 11.5666 21.6333 11.9916L26.275 13.8916C26.9083 14.1499 27.4333 14.9249 27.4333 15.6082L27.425 19.2666Z" stroke="#A0A0A0" stroke-width="1.5" stroke-linecap="round" stroke-linejoin="round"/>
    <path d="M20 20.4163C20.9205 20.4163 21.6667 19.6701 21.6667 18.7497C21.6667 17.8292 20.9205 17.083 20 17.083C19.0796 17.083 18.3334 17.8292 18.3334 18.7497C18.3334 19.6701 19.0796 20.4163 20 20.4163Z" stroke="black" stroke-width="1.5" stroke-miterlimit="10" stroke-linecap="round" stroke-linejoin="round"/>
    <path d="M20 20.416V22.916" stroke="black" stroke-width="1.5" stroke-miterlimit="10" stroke-linecap="round" stroke-linejoin="round"/>
</svg>
