<svg width="128" height="126" viewBox="0 0 128 126" fill="none" xmlns="http://www.w3.org/2000/svg">
    <circle cx="113.745" cy="111.962" r="2.31198" fill="black" stroke="black" stroke-width="0.0763804"/>
    <path d="M127.776 19.1304C127.776 21.4713 125.878 23.369 123.538 23.369C121.197 23.369 119.299 21.4713 119.299 19.1304C119.299 16.7895 121.197 14.8918 123.538 14.8918C125.878 14.8918 127.776 16.7895 127.776 19.1304Z" fill="black" stroke="black" stroke-width="0.140031"/>
    <circle cx="15.4299" cy="7.37951" r="6.5506" fill="black" stroke="black" stroke-width="0.216411"/>
    <path d="M11.064 92.7689C11.064 94.6842 9.51135 96.2369 7.59605 96.2369C5.68075 96.2369 4.12809 94.6842 4.12809 92.7689C4.12809 90.8536 5.68075 89.3009 7.59605 89.3009C9.51135 89.3009 11.064 90.8536 11.064 92.7689Z" fill="black" stroke="black" stroke-width="0.114571"/>
    <circle cx="42.4569" cy="122.929" r="2.31198" fill="black" stroke="black" stroke-width="0.0763804"/>
    <path d="M85.5241 118.621C85.5241 119.259 85.0065 119.777 84.3681 119.777C83.7296 119.777 83.2121 119.259 83.2121 118.621C83.2121 117.982 83.7296 117.465 84.3681 117.465C85.0065 117.465 85.5241 117.982 85.5241 118.621Z" fill="black" stroke="black" stroke-width="0.0381902"/>
    <path d="M119.21 75.5345C119.21 76.1729 118.692 76.6904 118.054 76.6904C117.415 76.6904 116.898 76.1729 116.898 75.5345C116.898 74.896 117.415 74.3785 118.054 74.3785C118.692 74.3785 119.21 74.896 119.21 75.5345Z" fill="black" stroke="black" stroke-width="0.0381902"/>
    <path d="M75.3401 3.46268C75.3401 4.10112 74.8225 4.61867 74.1841 4.61867C73.5457 4.61867 73.0281 4.10112 73.0281 3.46268C73.0281 2.82425 73.5457 2.30669 74.1841 2.30669C74.8225 2.30669 75.3401 2.82425 75.3401 3.46268Z" fill="black" stroke="black" stroke-width="0.0381902"/>
    <path d="M2.48494 52.0325C2.48494 52.6709 1.96739 53.1885 1.32895 53.1885C0.690518 53.1885 0.172965 52.6709 0.172965 52.0325C0.172965 51.3941 0.690518 50.8765 1.32895 50.8765C1.96739 50.8765 2.48494 51.3941 2.48494 52.0325Z" fill="black" stroke="black" stroke-width="0.0381902"/>
    <circle cx="66.7418" cy="62.6083" r="46.2395" fill="black" stroke="black" stroke-width="1.52761"/>
    <rect x="50.271" y="46.1373" width="32.9415" height="32.9415" rx="14.5123" fill="white" stroke="black" stroke-width="1.52761"/>
    <path d="M73.0088 58.0493L64.3916 66.5712L60.4746 62.6976" stroke="black" stroke-width="6.98335" stroke-linecap="round" stroke-linejoin="round"/>
</svg>
